<svg xmlns="http://www.w3.org/2000/svg" xmlns:xlink="http://www.w3.org/1999/xlink" viewBox="0 0 512 512"><defs><style>.cls-1{fill:url(#Безымянный_градиент_50);}.cls-2,.cls-3{fill:none;}.cls-2,.cls-4{stroke:#1a1a1a;}.cls-2,.cls-3,.cls-4{stroke-miterlimit:10;stroke-width:18px;}.cls-3{stroke:#000;}.cls-4{fill:#1a1a1a;}</style><radialGradient id="Безымянный_градиент_50" cx="472.65" cy="39.26" fy="-170.23263217603284" r="661.61" gradientUnits="userSpaceOnUse"><stop offset="0.01" stop-color="#ff0"/><stop offset="0.14" stop-color="#fbfe02"/><stop offset="0.27" stop-color="#effa08"/><stop offset="0.41" stop-color="#daf313"/><stop offset="0.54" stop-color="#bee922"/><stop offset="0.68" stop-color="#99dd35"/><stop offset="0.82" stop-color="#6cce4d"/><stop offset="0.95" stop-color="#37bc68"/><stop offset="1" stop-color="#22b573"/></radialGradient></defs><g id="Fon"><path class="cls-1" d="M387.52,512h-263A124.48,124.48,0,0,1,0,387.52v-263A124.48,124.48,0,0,1,124.48,0h263A124.48,124.48,0,0,1,512,124.48v263A124.48,124.48,0,0,1,387.52,512Z"/></g><g id="Слой_2" data-name="Слой 2"><rect class="cls-2" x="66" y="66" width="380" height="380" rx="165"/><rect class="cls-3" x="206" y="206" width="100" height="100" rx="6.22"/><path class="cls-4" d="M355.53,186.75,369,159.47c.12-.23-.15-.47-.52-.47h-26.9c-.37,0-.64.24-.52.47l13.44,27.28A.69.69,0,0,0,355.53,186.75Z"/></g></svg>